# xmcd CD database file generated by OrangeCD 5.2
#
# Track frame offsets:
#	150
#	17257
#	35147
#	46405
#	64705
#	82282
#	100375
#	114647
#	128660
#	142272
#	156242
#	167562
#	180520
#	200355
#	214112
#	223322
#	247555
#	266907
#
# Disc length: 3760 seconds
#
# Revision: 1
# Processed by: cddbd v1.5.1PL0 Copyright (c) Steve Scherf et al.
# Submitted via: OrangeCD 5.2
#
DISCID=0a0eae12
DTITLE=Verrijt, Jan Baptist (c.1610-1650) - Flammae Divinae, Opus 5
DYEAR=1900
DGENRE=Early Baroque (1600-1680)
TTITLE0=O Mediatrix Domina (SS)
TTITLE1=In Te Domine speravi (SB)
TTITLE2=Quae habitas in hortis (SB)
TTITLE3=Currite, pastores (TT)
TTITLE4=Vulnera cor meum (TT)
TTITLE5=Domine, ne in furore tuo (AB)
TTITLE6=O dulcis amor (AB)
TTITLE7=Ad te, dulcissime Iesu (ATB)
TTITLE8=Ave, dulcis Iesu (ATB)
TTITLE9=Ah, horrida bella (ATB)
TTITLE10=Vulnerasti cor meum (ATB)
TTITLE11=O Iesu mi, dulcissime spes (ATB)
TTITLE12=Fili, ego Salomon (ATB)
TTITLE13=Rogo te, dulcissime Domine Iesu Christe (SSA)
TTITLE14=Cantate Domino canticum novum (ATB)
TTITLE15=Salve mi Iesu (SAT)
TTITLE16=O Iesu, splendor aeternae gloriae (ATB)
TTITLE17=In nomine Iesu (SSA)
EXTD=
EXTT0=
EXTT1=
EXTT2=
EXTT3=
EXTT4=
EXTT5=
EXTT6=
EXTT7=
EXTT8=
EXTT9=
EXTT10=
EXTT11=
EXTT12=
EXTT13=
EXTT14=
EXTT15=
EXTT16=
EXTT17=
PLAYORDER=
